<svg width="80" height="80" viewBox="0 0 80 80" fill="none" xmlns="http://www.w3.org/2000/svg">
<rect x="1" y="1" width="78" height="78" rx="39" fill="#F9EDD2" stroke="#F08122" stroke-width="2"/>
<path d="M47.5221 60.6899C42.1124 60.6899 38.5585 55.854 38.4005 55.6329L40.3065 54.2587C40.3407 54.3035 43.6919 58.8682 48.3672 58.2864C49.8203 58.1048 51.2787 57.4467 52.4186 56.5701C52.1843 56.4332 51.9658 56.2805 51.7578 56.1146C50.3968 55.0248 49.7203 53.3242 50.0335 51.7816C50.2231 50.8444 50.8075 49.9994 51.6367 49.4623C52.3949 48.97 53.2662 48.8016 54.0876 48.9858C56.0409 49.4228 56.9912 51.5157 56.9201 53.3584C56.8964 54.0007 56.7438 54.6246 56.491 55.2196C57.3677 55.2196 58.6023 55.0643 59.4947 54.3193C60.782 53.2426 61.0189 50.9549 60.0107 49.3254C59.6395 48.7252 59.1262 48.1803 58.5812 47.6064C58.189 47.1931 57.7862 46.764 57.4124 46.2902C55.9119 44.3869 55.1959 42.1282 54.5035 39.9406C54.1297 38.7612 53.7769 37.6477 53.3084 36.5868C51.0681 31.5061 44.7817 27.5442 38.6849 27.3704C36.571 27.3125 33.2961 27.71 29.6554 29.9477C29.3606 30.1293 28.9999 30.1714 28.6682 30.0608C28.3392 29.9503 28.0759 29.7028 27.9469 29.379C27.6021 28.5077 26.9439 27.3625 25.7672 26.8466C23.9692 26.0595 21.9053 27.2335 20.5391 28.0128C17.7302 29.6107 12.6311 34.1965 13.4313 40.1064C13.7288 42.3046 14.6949 45.0766 16.4403 45.6636C17.6196 46.0585 19.2492 45.561 20.9103 44.2974C22.8952 42.789 24.7116 40.3328 26.0252 37.3871L28.1707 38.3453C25.1328 45.1582 19.7678 49.2596 15.6927 47.8934C12.2151 46.7245 11.3017 41.8807 11.1042 40.4223C10.6936 37.4002 11.5017 34.3044 13.4366 31.4692C14.9345 29.2737 17.101 27.2704 19.3781 25.9726C20.934 25.0854 23.8323 23.4375 26.7123 24.6958C28.0575 25.2855 28.9525 26.3043 29.5422 27.302C33.233 25.325 36.542 24.9538 38.7507 25.0196C42.0913 25.1144 45.6083 26.2174 48.6567 28.126C51.7657 30.074 54.1823 32.7407 55.4591 35.6365C55.9777 36.8132 56.3673 38.0399 56.7438 39.2272C57.4019 41.3042 58.0232 43.2654 59.2578 44.8318C59.5658 45.224 59.9185 45.5952 60.2897 45.9874C60.8899 46.6219 61.5112 47.28 62.0087 48.0855C63.6514 50.7417 63.2092 54.2719 61.0031 56.1173C59.7185 57.194 57.8599 57.6994 55.7697 57.5388C55.496 57.5178 55.2274 57.4862 54.9695 57.4467C53.3294 59.142 50.8996 60.3372 48.6567 60.6188C48.2698 60.6662 47.8933 60.6899 47.5221 60.6899ZM53.4295 51.2629C53.2136 51.2629 53.0188 51.3656 52.9108 51.4341C52.616 51.6262 52.3949 51.9369 52.3317 52.2501C52.1974 52.9188 52.5634 53.7533 53.2241 54.2824C53.4689 54.4799 53.7532 54.6457 54.0744 54.78C54.3745 54.2772 54.5535 53.7638 54.572 53.2663C54.6035 52.4239 54.2324 51.4262 53.5716 51.2787C53.5242 51.2682 53.4768 51.2629 53.4295 51.2629Z" fill="#F08122"/>
<path d="M52.2422 32.1379L51.0918 30.0899C52.3712 29.3738 54.693 27.7364 55.8908 24.8328C55.9935 24.5853 58.368 18.7043 55.1695 15.8481C53.4084 14.2738 49.5807 13.7236 48.0802 15.3163C47.6616 15.7612 47.6195 16.2429 47.559 17.3881C47.5063 18.3832 47.4405 19.6178 46.964 21.2157C46.2769 23.5244 45.0081 25.6515 43.189 27.5416L41.4963 25.9121C43.0521 24.2957 44.1341 22.4925 44.7132 20.5471C45.1081 19.215 45.1634 18.1778 45.2134 17.2643C45.2819 15.9955 45.345 14.7951 46.3691 13.7078C48.6567 11.2781 53.7901 11.4702 56.7332 14.0975C58.5786 15.7454 59.4078 18.2436 59.1261 21.3158C58.9208 23.5534 58.2021 25.3856 58.06 25.7304C56.5911 29.2896 53.7822 31.2745 52.2369 32.1406L52.2422 32.1379Z" fill="#F08122"/>
<path d="M55.7145 68.5742C54.314 68.5742 52.7424 68.0767 51.8079 66.8499C51.2919 66.1707 51.155 65.4837 51.0708 65.073C51.0603 65.0177 51.0497 64.9677 51.0392 64.9203C50.9655 64.5965 50.8944 64.2701 50.8233 63.941C50.4995 62.43 50.1968 61.0005 49.386 59.9265L51.263 58.5128C52.387 60.0028 52.7608 61.7561 53.1215 63.4514C53.1873 63.7673 53.2558 64.0805 53.3268 64.3912C53.3426 64.457 53.3584 64.5333 53.3742 64.6123C53.4321 64.9045 53.4874 65.1783 53.677 65.4257C54.1982 66.1102 55.3538 66.3261 56.2252 66.1839C56.2252 66.1839 57.294 65.9838 58.1338 65.1362C59.6159 63.6383 59.6659 60.2582 58.2575 56.7254L60.4398 55.854C62.2431 60.3766 61.9983 64.5676 59.8028 66.7867C58.4339 68.1714 56.7833 68.4715 56.599 68.5031C56.3173 68.5479 56.0172 68.5716 55.7092 68.5716L55.7145 68.5742Z" fill="#F08122"/>
<path d="M43.8156 47.4536C44.6283 47.4536 45.2871 46.7948 45.2871 45.9821C45.2871 45.1693 44.6283 44.5105 43.8156 44.5105C43.0028 44.5105 42.344 45.1693 42.344 45.9821C42.344 46.7948 43.0028 47.4536 43.8156 47.4536Z" fill="#F08122"/>
<path d="M51.0839 44.9817C51.8966 44.9817 52.5554 44.3229 52.5554 43.5101C52.5554 42.6974 51.8966 42.0386 51.0839 42.0386C50.2711 42.0386 49.6123 42.6974 49.6123 43.5101C49.6123 44.3229 50.2711 44.9817 51.0839 44.9817Z" fill="#F08122"/>
<path d="M54.5851 60.5005C54.5298 60.0319 54.4587 59.5633 54.3745 59.1C54.2507 58.4366 54.0954 57.7732 53.9111 57.1256L56.1698 56.478C56.3751 57.1967 56.5489 57.9338 56.6858 58.6709C56.7805 59.1842 56.8595 59.7055 56.9201 60.2241L54.5877 60.4978L54.5851 60.5005Z" fill="#F08122"/>
<path d="M37.4818 63.133C34.2333 62.933 31.1349 62.1037 28.2733 60.6664C22.9241 57.9786 19.8125 53.8877 18.1409 50.9288L19.981 49.8916C21.5078 52.5952 24.3483 56.3307 29.221 58.7789C31.8272 60.0872 34.6492 60.8428 37.6108 61.0244L37.4818 63.133Z" fill="#F08122"/>
<path d="M37.6055 63.2726L37.4739 63.2647C34.207 63.0646 31.0927 62.2301 28.2128 60.7849C22.8346 58.0839 19.7046 53.9693 18.025 50.9946L17.9592 50.8788L20.0284 49.71L20.0942 49.8258C21.6105 52.5136 24.4352 56.228 29.2789 58.6604C31.8693 59.9609 34.6756 60.7112 37.6187 60.8928L37.7503 60.9007L37.6055 63.2726ZM18.3199 50.9788C19.9968 53.9114 23.0794 57.9102 28.3313 60.5479C31.1401 61.959 34.1754 62.7803 37.3581 62.9935L37.4713 61.1481C34.5413 60.9507 31.7456 60.1952 29.1605 58.8974C24.3272 56.4676 21.4789 52.7795 19.9283 50.0706L18.3172 50.9788H18.3199Z" fill="#F08122"/>
</svg>
