<svg width="80" height="80" viewBox="0 0 80 80" fill="none" xmlns="http://www.w3.org/2000/svg">
<rect x="1" y="1" width="78" height="78" rx="39" fill="#EB2E51" stroke="#F9EDD2" stroke-width="2"/>
<path d="M64.2309 34.5117C56.1 32.0728 45.4167 28.2024 39.4682 23.3339C33.8101 28.2887 22.9817 31.8301 14.667 33.9649L14 31.3718C25.0099 28.545 33.2498 25.0785 37.4718 21.5189C35.9019 19.9603 34.1278 17.7347 35.0511 15.5364C35.6614 14.0822 37.406 13.0159 39.1937 13H39.23C40.9905 13 42.7374 14.0345 43.3976 15.4706C44.3777 17.6077 42.7692 19.8855 41.3762 21.4304C45.8546 24.9945 54.1534 28.6948 65 31.948L64.2309 34.5139V34.5117ZM39.2346 15.677H39.2187C38.3657 15.6839 37.6737 16.2102 37.5217 16.5709C37.3561 16.9634 37.5852 17.8073 39.3843 19.6268C40.6888 18.1635 41.2197 17.1426 40.9656 16.5868C40.7909 16.2034 40.0921 15.677 39.2368 15.677H39.2346Z" fill="#F9EDD2"/>
<path d="M59.0673 62.7161H19.8554C19.1158 62.7161 18.5168 62.1171 18.5168 61.3776V36.1997H21.1939V60.039H57.7288V36.1997H60.4058V61.3776C60.4058 62.1171 59.8069 62.7161 59.0673 62.7161Z" fill="#F9EDD2"/>
<path d="M43.7766 62.7161H35.1465C34.6882 62.7161 34.2594 62.4801 34.0144 62.0922C32.3333 59.431 31.3691 55.572 31.3691 51.502C31.3691 43.5571 34.9242 37.3318 39.4615 37.3318C43.9989 37.3318 47.5539 43.5548 47.5539 51.502C47.5539 55.572 46.5897 59.431 44.9086 62.0922C44.6636 62.4801 44.2348 62.7161 43.7766 62.7161ZM35.9133 60.039H43.0098C44.2031 57.8225 44.8769 54.7621 44.8769 51.5043C44.8769 44.7322 42.0229 40.0134 39.4615 40.0134C36.9002 40.0134 34.0462 44.7322 34.0462 51.5043C34.0462 54.7643 34.72 57.8248 35.9133 60.039Z" fill="#F9EDD2"/>
</svg>
