<svg width="80" height="80" viewBox="0 0 80 80" fill="none" xmlns="http://www.w3.org/2000/svg" className="group w-10 h-10 ">
          <rect className="group-hover:fill-[#FAA627] group-hover:stroke-[#F9EDD2] transition-all duration-300" x="1" y="1" width="78" height="78" rx="39" fill="#F9EDD2" stroke="#FAA627" stroke-width="2" />
          <path className="group-hover:fill-[#F9EDD2] transition-all duration-300" d="M43.2858 47.2253C44.0614 47.2253 44.6902 46.5972 44.6902 45.8225C44.6902 45.0477 44.0614 44.4197 43.2858 44.4197C42.5101 44.4197 41.8813 45.0477 41.8813 45.8225C41.8813 46.5972 42.5101 47.2253 43.2858 47.2253Z" fill="#FAA627" />
          <path className="group-hover:fill-[#F9EDD2] transition-all duration-300" d="M51.0907 47.9086C51.8663 47.9086 52.4951 47.2806 52.4951 46.5058C52.4951 45.7311 51.8663 45.103 51.0907 45.103C50.3151 45.103 49.6863 45.7311 49.6863 46.5058C49.6863 47.2806 50.3151 47.9086 51.0907 47.9086Z" fill="#FAA627" />
          <path className="group-hover:fill-[#F9EDD2] transition-all duration-300" d="M40.7993 62.1444C39.707 62.1444 38.5289 61.9418 37.3273 61.4067C34.131 59.9831 31.9854 56.7125 31.8631 53.0704L34.2324 52.9899C34.3261 55.7305 35.9203 58.1854 38.2948 59.2427C40.867 60.3883 43.3585 59.4246 44.5964 58.7595C44.0217 58.1698 43.5301 57.5438 43.1426 56.9255C42.1049 55.2655 41.798 53.7121 42.2792 52.5561C43.0126 50.7974 45.3663 50.2908 46.6432 50.27C47.3428 50.257 49.7121 50.348 50.69 52.0001C51.8291 53.9277 50.4065 56.7307 48.4404 58.7595C49.244 59.1986 50.1179 59.4921 51.0125 59.5467C52.5678 59.6376 54.8616 59.0635 56.4767 57.5672C56.5729 57.4788 56.6457 57.4061 56.6926 57.3593C60.5001 53.6315 59.1425 47.0332 58.6379 45.1005C58.058 42.8897 57.0229 40.8271 55.5586 38.9671C55.3922 38.7567 55.3038 38.4969 55.3038 38.2319L55.3662 20.9516L49.0359 31.4803C48.7447 31.9661 48.1491 32.1765 47.6185 31.9843C46.4768 31.5739 45.2961 31.2647 44.1075 31.0725C41.3507 30.6231 38.5367 30.7659 35.7383 31.4985C35.4106 31.5842 35.0595 31.5245 34.7786 31.3375C34.4977 31.1478 34.3105 30.8491 34.2636 30.5114L32.5081 17.5277L16.3392 43.3573L14.3289 42.1026L32.2403 13.4908C32.5055 13.0673 33.0075 12.8569 33.4938 12.9608C33.9828 13.0647 34.3521 13.4648 34.4171 13.9584L36.4353 28.9033C39.1271 28.3578 41.8292 28.3007 44.4846 28.7345C45.4963 28.8981 46.5054 29.1371 47.4911 29.4437L55.5482 16.047C55.8239 15.5898 56.3675 15.3715 56.8824 15.517C57.3948 15.6599 57.7511 16.1275 57.7485 16.66L57.673 37.8345C59.2049 39.8633 60.2998 42.1052 60.9292 44.5004C61.6834 47.3787 62.9422 54.5563 58.3518 59.0505C58.292 59.1076 58.2036 59.196 58.0866 59.3051C55.8109 61.4119 52.7784 62.0249 50.8695 61.9132C49.3012 61.8197 47.811 61.2222 46.5236 60.3702C46.5002 60.3857 46.4794 60.3987 46.456 60.4143C45.681 60.9157 43.4963 62.1496 40.7967 62.1496L40.7993 62.1444ZM46.7499 52.6392C46.7265 52.6392 46.7031 52.6392 46.6797 52.6392C45.7122 52.6548 44.6355 53.0574 44.4638 53.4679C44.352 53.7354 44.443 54.546 45.1478 55.6734C45.4963 56.2319 45.967 56.8086 46.5236 57.3438C48.1439 55.7851 49.0281 53.8523 48.6484 53.2081C48.4352 52.847 47.5301 52.6392 46.7525 52.6392H46.7499Z" fill="#FAA627" />
          <path className="group-hover:fill-[#F9EDD2] transition-all duration-300" d="M67.745 46.2159L56.0579 47.48L56.3129 49.8328L68 48.5688L67.745 46.2159Z" fill="#FAA627" />
          <path className="group-hover:fill-[#F9EDD2] transition-all duration-300" d="M55.942 52.7425L55.2327 55.0005L66.4489 58.5157L67.1582 56.2577L55.942 52.7425Z" fill="#FAA627" />
          <path className="group-hover:fill-[#F9EDD2] transition-all duration-300" d="M27.1692 40.9451L26.1064 43.0603L36.613 48.327L37.6757 46.2119L27.1692 40.9451Z" fill="#FAA627" />
          <path className="group-hover:fill-[#F9EDD2] transition-all duration-300" d="M24.1988 50.5523L24.0728 52.9155L35.8115 53.5403L35.9376 51.1771L24.1988 50.5523Z" fill="#FAA627" />
          <path className="group-hover:fill-[#F9EDD2] transition-all duration-300" d="M32.0583 64.3265C28.6591 63.6979 25.4992 62.4276 22.6722 60.552C16.8673 56.6969 14.1209 51.2883 13 48.4074L15.0364 47.6177C16.0637 50.257 18.5786 55.2136 23.8816 58.7335C26.4641 60.4481 29.3483 61.6067 32.4562 62.1808L32.0583 64.3291V64.3265Z" fill="#FAA627" />
          </svg>