<svg width="80" height="80" viewBox="0 0 80 80" fill="none" xmlns="http://www.w3.org/2000/svg">
<circle cx="40" cy="40" r="39" fill="#EF3927" stroke="#F9EDD2" stroke-width="2"/>
<path d="M55.8311 55.9979C48.4917 55.9979 42.8716 52.8285 39.7749 50.5405C37.1139 52.7299 33.7964 54.6062 29.7557 55.4832C19.1531 57.7884 10.3092 51.7585 7 49.0587L8.39202 47.2489C10.7801 49.196 19.3448 55.3867 29.291 53.2252C32.7273 52.479 35.601 50.9222 37.9495 49.0759C36.6158 47.9329 29.9204 41.8194 27.8615 32.6394C27.1363 29.4079 27.924 27.5294 28.4596 26.6974C29.3411 25.3229 30.8644 24.3365 32.4356 24.1199C34.8549 23.7875 37.3243 25.2543 38.9101 27.7632C39.6833 26.4723 40.9461 25.0334 42.9195 24.3815C44.7491 23.7747 46.5162 23.8948 47.8916 24.7203C48.0833 24.8361 49.7816 25.9212 50.5547 28.5694C51.3695 31.3635 49.9171 36.8209 47.0205 41.843C45.8807 43.8201 44.0739 46.4898 41.515 48.9794C44.7366 51.261 50.4256 54.2052 57.7399 53.6133C64.4562 53.0665 69.2886 49.7278 71.5726 47.7893L73 49.5691C70.5119 51.6834 65.246 55.3181 57.917 55.9142C57.2064 55.9721 56.5104 56 55.829 56L55.8311 55.9979ZM33.1149 26.3822C32.9857 26.3822 32.8586 26.3908 32.7294 26.4079C31.7979 26.5345 30.856 27.1477 30.3309 27.9669C30.06 28.3893 29.489 29.6395 30.0475 32.1184C32.1105 41.3219 39.5145 47.4119 39.5895 47.4719C39.6249 47.5019 39.6624 47.5341 39.6999 47.5663C42.2214 45.1839 43.9948 42.5742 45.095 40.6636C47.8582 35.8688 48.9502 31.0869 48.4105 29.2321C47.8895 27.4458 46.7976 26.7339 46.7496 26.7039C45.9348 26.2149 44.845 26.1678 43.6092 26.5752C41.0315 27.4287 40.1229 30.4372 40.0271 30.7781C39.8916 31.2628 39.4686 31.5994 38.9789 31.6123C38.4788 31.6552 38.0495 31.3121 37.889 30.836C37.0097 28.2156 35.0112 26.3801 33.117 26.3801L33.1149 26.3822Z" fill="#F9EDD2"/>
</svg>
